<mxfile host="app.diagrams.net" modified="2021-02-18T10:06:50.422Z" agent="5.0 (X11; Linux x86_64) AppleWebKit/537.36 (KHTML, like Gecko) Chrome/87.0.4280.88 Safari/537.36" etag="n7Klm5jdyO6JboFxeFDV" version="14.4.2" type="github">
  <diagram id="95en7dngdsD7mRN3J71m" name="Page-1">
    <mxGraphModel dx="1102" dy="560" grid="1" gridSize="10" guides="1" tooltips="1" connect="1" arrows="1" fold="1" page="1" pageScale="1" pageWidth="827" pageHeight="1169" math="0" shadow="0">
      <root>
        <mxCell id="0" />
        <mxCell id="1" parent="0" />
        <mxCell id="_tVaoeIy141urP9iwd9o-5" value="" style="group" vertex="1" connectable="0" parent="1">
          <mxGeometry x="240" y="130" width="370" height="370" as="geometry" />
        </mxCell>
        <mxCell id="_tVaoeIy141urP9iwd9o-3" value="" style="whiteSpace=wrap;html=1;aspect=fixed;" vertex="1" parent="_tVaoeIy141urP9iwd9o-5">
          <mxGeometry x="20" y="20" width="350" height="350" as="geometry" />
        </mxCell>
        <mxCell id="_tVaoeIy141urP9iwd9o-4" value="" style="aspect=fixed;html=1;points=[];align=center;image;fontSize=12;image=img/lib/mscae/VM_Linux.svg;" vertex="1" parent="_tVaoeIy141urP9iwd9o-5">
          <mxGeometry width="50" height="46" as="geometry" />
        </mxCell>
        <mxCell id="_tVaoeIy141urP9iwd9o-1" value="" style="shape=image;html=1;verticalAlign=top;verticalLabelPosition=bottom;labelBackgroundColor=#ffffff;imageAspect=0;aspect=fixed;image=https://cdn4.iconfinder.com/data/icons/logos-brands-5/24/nginx-128.png" vertex="1" parent="_tVaoeIy141urP9iwd9o-5">
          <mxGeometry x="60" y="90" width="70" height="70" as="geometry" />
        </mxCell>
        <mxCell id="_tVaoeIy141urP9iwd9o-13" value="" style="shape=image;html=1;verticalAlign=top;verticalLabelPosition=bottom;labelBackgroundColor=#ffffff;imageAspect=0;aspect=fixed;image=https://cdn4.iconfinder.com/data/icons/logos-and-brands/512/267_Python_logo-128.png" vertex="1" parent="_tVaoeIy141urP9iwd9o-5">
          <mxGeometry x="230" y="90" width="70" height="70" as="geometry" />
        </mxCell>
        <mxCell id="_tVaoeIy141urP9iwd9o-14" value="" style="strokeWidth=2;html=1;shape=mxgraph.flowchart.database;whiteSpace=wrap;" vertex="1" parent="_tVaoeIy141urP9iwd9o-5">
          <mxGeometry x="235" y="260" width="60" height="60" as="geometry" />
        </mxCell>
        <mxCell id="_tVaoeIy141urP9iwd9o-17" value="" style="endArrow=classic;startArrow=classic;html=1;exitX=0.5;exitY=0;exitDx=0;exitDy=0;exitPerimeter=0;entryX=0.5;entryY=1;entryDx=0;entryDy=0;" edge="1" parent="_tVaoeIy141urP9iwd9o-5" source="_tVaoeIy141urP9iwd9o-14" target="_tVaoeIy141urP9iwd9o-13">
          <mxGeometry width="50" height="50" relative="1" as="geometry">
            <mxPoint x="150" y="180" as="sourcePoint" />
            <mxPoint x="200" y="130" as="targetPoint" />
          </mxGeometry>
        </mxCell>
        <mxCell id="_tVaoeIy141urP9iwd9o-18" value="" style="endArrow=classic;startArrow=classic;html=1;exitX=1;exitY=0.5;exitDx=0;exitDy=0;" edge="1" parent="_tVaoeIy141urP9iwd9o-5" source="_tVaoeIy141urP9iwd9o-1" target="_tVaoeIy141urP9iwd9o-13">
          <mxGeometry width="50" height="50" relative="1" as="geometry">
            <mxPoint x="150" y="180" as="sourcePoint" />
            <mxPoint x="200" y="130" as="targetPoint" />
          </mxGeometry>
        </mxCell>
        <mxCell id="_tVaoeIy141urP9iwd9o-22" value="Linux" style="text;html=1;strokeColor=none;fillColor=none;align=center;verticalAlign=middle;whiteSpace=wrap;rounded=0;" vertex="1" parent="_tVaoeIy141urP9iwd9o-5">
          <mxGeometry x="154" y="350" width="40" height="20" as="geometry" />
        </mxCell>
        <mxCell id="_tVaoeIy141urP9iwd9o-23" value="Nginx Server" style="text;html=1;strokeColor=none;fillColor=none;align=center;verticalAlign=middle;whiteSpace=wrap;rounded=0;" vertex="1" parent="_tVaoeIy141urP9iwd9o-5">
          <mxGeometry x="75" y="170" width="40" height="20" as="geometry" />
        </mxCell>
        <mxCell id="_tVaoeIy141urP9iwd9o-26" value="Front end" style="text;html=1;strokeColor=none;fillColor=none;align=center;verticalAlign=middle;whiteSpace=wrap;rounded=0;" vertex="1" parent="_tVaoeIy141urP9iwd9o-5">
          <mxGeometry x="65" y="60" width="65" height="20" as="geometry" />
        </mxCell>
        <mxCell id="_tVaoeIy141urP9iwd9o-28" value="Back end" style="text;html=1;strokeColor=none;fillColor=none;align=center;verticalAlign=middle;whiteSpace=wrap;rounded=0;" vertex="1" parent="_tVaoeIy141urP9iwd9o-5">
          <mxGeometry x="230" y="60" width="65" height="20" as="geometry" />
        </mxCell>
        <mxCell id="_tVaoeIy141urP9iwd9o-41" value="Database" style="text;html=1;strokeColor=none;fillColor=none;align=center;verticalAlign=middle;whiteSpace=wrap;rounded=0;" vertex="1" parent="_tVaoeIy141urP9iwd9o-5">
          <mxGeometry x="295" y="280" width="65" height="20" as="geometry" />
        </mxCell>
        <mxCell id="_tVaoeIy141urP9iwd9o-20" value="" style="aspect=fixed;html=1;points=[];align=center;image;fontSize=12;image=img/lib/mscae/Two_User_Icon.svg;" vertex="1" parent="1">
          <mxGeometry x="30" y="340" width="50" height="50" as="geometry" />
        </mxCell>
        <mxCell id="_tVaoeIy141urP9iwd9o-21" value="User" style="text;html=1;strokeColor=none;fillColor=none;align=center;verticalAlign=middle;whiteSpace=wrap;rounded=0;" vertex="1" parent="1">
          <mxGeometry x="35" y="400" width="40" height="20" as="geometry" />
        </mxCell>
        <mxCell id="_tVaoeIy141urP9iwd9o-25" value="" style="points=[[0.015,0.015,0],[0.985,0.015,0],[0.985,0.985,0],[0.015,0.985,0],[0.25,0,0],[0.5,0,0],[0.75,0,0],[1,0.25,0],[1,0.5,0],[1,0.75,0],[0.75,1,0],[0.5,1,0],[0.25,1,0],[0,0.75,0],[0,0.5,0],[0,0.25,0]];verticalLabelPosition=bottom;html=1;verticalAlign=top;aspect=fixed;align=center;pointerEvents=1;shape=mxgraph.cisco19.dns_server;fillColor=#005073;strokeColor=none;" vertex="1" parent="1">
          <mxGeometry x="100" y="160" width="27.500000000000004" height="50" as="geometry" />
        </mxCell>
      </root>
    </mxGraphModel>
  </diagram>
</mxfile>
